HIERARCHY
ROOT Hips
{
	OFFSET 0.00000 0.00000 0.00000
	CHANNELS 6 Xposition Yposition Zposition Zrotation Yrotation Xrotation 
	JOINT RightUpLegDummy
	{
		OFFSET 0 0 0
		CHANNELS 3 Zrotation Yrotation Xrotation
		JOINT RightUpLeg
		{
			OFFSET -3.52197 -3.41223 0.04002
			CHANNELS 3 Zrotation Yrotation Xrotation
			JOINT RightLeg
			{
				OFFSET 0.00006 -17.42390 1.60435
				CHANNELS 3 Zrotation Yrotation Xrotation
				JOINT RightFoot
				{
					OFFSET 0.06153 -16.50078 -1.63901
					CHANNELS 3 Zrotation Yrotation Xrotation
					JOINT RightToes
					{
						OFFSET 0.00298 -1.73825 3.34613
						CHANNELS 3 Zrotation Yrotation Xrotation
						End Site
						{
							OFFSET 0.00480 -0.05416 3.85043
						}
					}
				}
			}
		}
	}
	JOINT SpineDummy
	{
		OFFSET 0 0 0
		CHANNELS 3 Zrotation Yrotation Xrotation
		JOINT Spine
		{
			OFFSET 0.00000 4.68130 0.00000
			CHANNELS 3 Zrotation Yrotation Xrotation
			JOINT Spine1
			{
				OFFSET -0.00000 10.10138 0.05002
				CHANNELS 3 Zrotation Yrotation Xrotation
				JOINT HEadDummy
				{
					OFFSET 0 0 0
					CHANNELS 3 Zrotation Yrotation Xrotation
					JOINT Head
					{
						OFFSET -0.00000 3.43865 0.00438
						CHANNELS 3 Zrotation Yrotation Xrotation
						End Site
						{
							OFFSET -0.11417 5.02924 0.98962
						}
					}
				}
				JOINT LeftShoulder1Dummy
				{
					OFFSET 0 0 0
					CHANNELS 3 Zrotation Yrotation Xrotation
					JOINT LeftShoulder1
					{
						OFFSET 3.53937 -0.14262 -0.08662
						CHANNELS 3 Zrotation Yrotation Xrotation
						JOINT LeftArm
						{
							OFFSET 4.04833 -0.00133 0.12681
							CHANNELS 3 Zrotation Yrotation Xrotation
							JOINT LeftForeArm
							{
								OFFSET 10.33880 -0.01036 -0.55515
								CHANNELS 3 Zrotation Yrotation Xrotation
								JOINT LeftHand
								{
									OFFSET 8.69677 0.07543 0.40060
									CHANNELS 3 Zrotation Yrotation Xrotation
									End Site
									{
										OFFSET 5.28377 -0.21905 0.59205
									}
								}
							}
						}
					}
				}
				JOINT RightShoulderDummy
				{
					OFFSET 0 0 0
					CHANNELS 3 Zrotation Yrotation Xrotation
					JOINT RightShoulder
					{
						OFFSET -3.53937 -0.14262 -0.08660
						CHANNELS 3 Zrotation Yrotation Xrotation
						JOINT RightArm
						{
							OFFSET -4.04833 -0.00133 0.12683
							CHANNELS 3 Zrotation Yrotation Xrotation
							JOINT RightForeArm
							{
								OFFSET -10.37987 -0.01039 -0.55511
								CHANNELS 3 Zrotation Yrotation Xrotation
								JOINT RightHand
								{
									OFFSET -8.67398 0.07538 0.40058
									CHANNELS 3 Zrotation Yrotation Xrotation
									End Site
									{
										OFFSET -5.24810 -0.21916 0.59204
									}
								}
							}
						}
					}
				}
			}
		}
	}
	JOINT LeftUpLegDummy
	{
		OFFSET 0 0 0
		CHANNELS 3 Zrotation Yrotation Xrotation
		JOINT LeftUpLeg
		{
			OFFSET 3.52197 -3.41223 0.04002
			CHANNELS 3 Zrotation Yrotation Xrotation
			JOINT LeftLeg
			{
				OFFSET -0.00012 -17.42399 1.60337
				CHANNELS 3 Zrotation Yrotation Xrotation
				JOINT LeftFoot
				{
					OFFSET -0.09972 -16.50070 -1.63802
					CHANNELS 3 Zrotation Yrotation Xrotation
					JOINT LeftToes
					{
						OFFSET -0.01575 -1.73823 3.34611
						CHANNELS 3 Zrotation Yrotation Xrotation
						End Site
						{
							OFFSET 0.03150 -0.01868 3.85031
						}
					}
				}
			}
		}
	}
}
MOTION
Frames: 12
Frame Time: 0.033333
-1.2493 40.1622 -4.0973 -1.7931 -5.1707 0.9371 0.0000 0.0000 0.0000 -0.2929 -1.9616 -1.8207 -1.7014 -6.5402 2.2446 1.1548 -0.0987 -0.7690 0.0000 -0.0000 -0.0000 0.0000 0.0000 0.0000 2.4794 0.0246 -2.3965 2.3589 -0.6670 2.6005 -0.0000 0.0000 -0.0000 1.7511 -3.8558 -9.0852 -0.0000 0.0000 -0.0000 -35.1217 -3.1250 2.7287 -44.3920 -16.3473 -18.7677 -9.6899 5.1921 46.1418 14.5593 -3.9079 -1.1367 -0.0000 0.0000 -0.0000 33.7419 4.9552 3.3624 39.9674 8.6225 -17.8104 10.2095 0.4489 20.9099 -11.2534 2.5344 -0.7476 0.0000 0.0000 0.0000 4.2426 2.9253 -0.1016 2.6780 11.1568 4.7798 -0.4101 0.0473 -4.0420 0.0000 0.0000 -0.0000
-1.2493 40.1622 -4.0958 -1.7931 -5.1680 0.9636 0.0000 0.0000 0.0000 -0.2929 -1.9616 -1.8513 -1.6966 -6.5399 2.2446 1.1657 -0.0994 -0.7753 0.0000 -0.0000 -0.0000 0.0000 0.0000 0.0000 2.5099 -0.0083 -2.3511 2.2778 -0.6828 2.4903 -0.0000 0.0000 -0.0000 1.7273 -4.0121 -9.1823 -0.0000 0.0000 -0.0000 -35.0865 -3.0991 2.7157 -44.3716 -16.4450 -18.9152 -9.6077 5.1874 46.3461 14.9737 -3.9496 -1.1755 -0.0000 0.0000 -0.0000 33.8585 4.9790 3.3819 39.8765 8.5755 -17.7758 10.2368 0.4352 20.7363 -11.3431 2.0171 -0.7072 0.0000 0.0000 0.0000 4.2426 2.9253 -0.1323 2.6775 11.1629 4.7798 -0.3810 0.0454 -4.0420 0.0000 0.0000 -0.0000
-1.2511 40.1622 -4.0918 -1.7931 -5.1614 0.9909 0.0000 0.0000 0.0000 -0.2929 -1.9616 -1.8753 -1.6923 -6.5379 2.2446 1.1697 -0.0996 -0.7908 0.0000 -0.0000 -0.0000 0.0000 0.0000 0.0000 2.5482 -0.0606 -2.3044 2.1626 -0.7121 2.3765 -0.0000 0.0000 -0.0000 1.6589 -4.2231 -9.3427 -0.0000 0.0000 -0.0000 -35.0028 -3.0561 2.6924 -44.3994 -16.5196 -19.0393 -9.5435 5.1842 46.4871 15.6023 -3.9667 -1.2289 -0.0000 0.0000 -0.0000 34.0244 5.0115 3.4091 39.7502 8.5216 -17.7026 10.2804 0.4071 20.6142 -11.3605 1.7621 -0.6853 0.0000 0.0000 0.0000 4.2426 2.9253 -0.1601 2.6827 11.1707 4.7797 -0.3513 0.0435 -4.0420 0.0000 0.0000 -0.0000
-1.2534 40.1622 -4.0846 -1.7931 -5.1971 0.9881 0.0000 0.0000 0.0000 -0.2893 -1.9616 -1.8665 -1.6883 -6.5079 2.2490 1.1506 -0.0983 -0.8101 0.0000 -0.0000 -0.0000 0.0000 0.0000 0.0000 2.5682 -0.0731 -2.3120 2.1006 -0.7142 2.4077 -0.0000 0.0000 -0.0000 1.5823 -4.3011 -9.5071 -0.0000 0.0000 -0.0000 -34.9568 -3.0260 2.6771 -44.4656 -16.5256 -19.2140 -9.4660 5.1921 46.2344 15.9126 -3.8769 -1.2426 -0.0000 0.0000 -0.0000 34.0716 5.0245 3.4184 39.7280 8.5073 -17.6504 10.3042 0.3977 20.6447 -11.2043 2.0185 -0.6984 0.0000 0.0000 0.0000 4.2456 2.9274 -0.1353 2.6936 11.2072 4.7761 -0.3553 0.0438 -4.0496 0.0000 0.0000 -0.0000
-1.2566 40.1622 -4.0757 -1.7931 -5.2867 0.9695 0.0000 0.0000 0.0000 -0.2759 -1.9616 -1.8473 -1.6798 -6.4362 2.2619 1.1234 -0.0966 -0.8211 0.0000 -0.0000 -0.0000 0.0000 0.0000 0.0000 2.5821 -0.0321 -2.3261 2.0736 -0.6696 2.5144 -0.0000 0.0000 -0.0000 1.5907 -4.2920 -9.6663 -0.0000 0.0000 -0.0000 -35.0111 -3.0184 2.6772 -44.4878 -16.4505 -19.6364 -9.2825 5.2162 45.4245 15.6539 -3.6264 -1.1898 -0.0000 0.0000 -0.0000 33.9880 5.0174 3.4083 39.8374 8.4831 -17.6590 10.2981 0.4227 20.7237 -11.0677 2.2597 -0.7109 0.0000 0.0000 0.0000 4.2583 2.9368 -0.0718 2.7000 11.2827 4.7567 -0.3827 0.0456 -4.0624 0.0000 0.0000 -0.0000
-1.2606 40.1622 -4.0673 -1.7931 -5.3742 0.9722 0.0000 0.0000 0.0000 -0.2676 -1.9616 -1.8481 -1.6657 -6.3581 2.2652 1.1157 -0.0960 -0.8244 0.0000 -0.0000 -0.0000 0.0000 0.0000 0.0000 2.5889 0.0181 -2.2796 2.0376 -0.6100 2.5320 -0.0000 0.0000 -0.0000 1.7596 -4.3452 -9.8468 -0.0000 0.0000 -0.0000 -35.1209 -3.0172 2.6836 -44.4343 -16.2321 -20.1686 -9.0819 5.2523 44.1472 14.9304 -3.2255 -1.0840 -0.0000 0.0000 -0.0000 33.8930 5.0072 3.3960 39.9804 8.3717 -17.7211 10.2763 0.4405 20.7833 -11.0883 2.1954 -0.7065 0.0000 0.0000 0.0000 4.2680 2.9437 -0.0289 2.7058 11.3643 4.7262 -0.4055 0.0470 -4.0615 0.0000 0.0000 -0.0000
-1.2645 40.1622 -4.0612 -1.7931 -5.4187 1.0087 0.0000 0.0000 0.0000 -0.2727 -1.9655 -1.8733 -1.6473 -6.3088 2.2449 1.1254 -0.0967 -0.8244 0.0000 -0.0000 -0.0000 0.0000 0.0000 0.0000 2.5781 0.0460 -2.2052 1.9912 -0.5673 2.4460 -0.0000 0.0000 -0.0000 2.0405 -4.4340 -10.0675 -0.0000 0.0000 -0.0000 -35.1839 -3.0185 2.6884 -44.3541 -15.9223 -20.5022 -9.0137 5.2861 42.8650 13.9996 -2.8588 -0.9722 -0.0000 0.0000 -0.0000 33.8862 5.0067 3.3953 40.0527 8.1662 -17.7902 10.2630 0.4413 20.7419 -11.1052 2.0504 -0.6949 0.0000 0.0000 0.0000 4.2567 2.9295 -0.0374 2.7241 11.4259 4.6978 -0.4157 0.0477 -4.0450 0.0000 0.0000 -0.0000
-1.2675 40.1622 -4.0570 -1.7931 -5.4477 1.0552 0.0000 0.0000 0.0000 -0.2801 -1.9749 -1.9086 -1.6232 -6.2746 2.2213 1.1220 -0.0965 -0.8225 0.0000 -0.0000 -0.0000 0.0000 0.0000 0.0000 2.5729 0.0679 -2.1759 1.9360 -0.5307 2.3749 -0.0000 0.0000 -0.0000 2.2963 -4.4250 -10.3012 -0.0000 0.0000 -0.0000 -35.1480 -3.0194 2.6871 -44.3020 -15.7119 -20.6193 -9.0336 5.3038 42.1505 13.1155 -2.7937 -0.9016 -0.0000 0.0000 -0.0000 33.9688 5.0159 3.4061 40.0457 7.9304 -17.8083 10.2803 0.5007 20.4563 -10.9822 2.0182 -0.6841 0.0000 0.0000 0.0000 4.2362 2.9013 -0.0697 2.7585 11.4826 4.6835 -0.4221 0.0481 -4.0305 0.0000 0.0000 -0.0000
-1.2703 40.1622 -4.0542 -1.7972 -5.4904 1.0841 0.0000 0.0000 0.0000 -0.2809 -1.9846 -1.9400 -1.5958 -6.2292 2.2217 1.0954 -0.0948 -0.8200 0.0000 -0.0000 -0.0000 0.0000 0.0000 0.0000 2.5951 0.0923 -2.1643 1.8682 -0.4922 2.3460 -0.0000 0.0000 -0.0000 2.4658 -4.3889 -10.5081 -0.0000 0.0000 -0.0000 -35.0478 -3.0184 2.6799 -44.2947 -15.6570 -20.7112 -9.0065 5.3059 42.0778 12.5282 -3.0007 -0.8809 -0.0000 0.0000 -0.0000 34.0788 5.0271 3.4200 40.0127 7.7461 -17.7631 10.3243 0.6298 20.0198 -10.8775 2.0353 -0.6789 0.0000 0.0000 0.0000 4.2276 2.8790 -0.0872 2.7948 11.5432 4.6817 -0.4287 0.0485 -4.0268 0.0000 0.0000 -0.0000
-1.2734 40.1622 -4.0518 -1.8050 -5.5200 1.0934 0.0000 0.0000 0.0000 -0.2758 -1.9906 -1.9572 -1.5760 -6.1911 2.2373 1.0698 -0.0931 -0.8182 0.0000 -0.0000 -0.0000 0.0000 0.0000 0.0000 2.6035 0.0852 -2.0833 1.8371 -0.4905 2.2734 -0.0000 0.0000 -0.0000 2.6169 -4.5195 -10.6903 -0.0000 0.0000 -0.0000 -34.9588 -2.9785 2.6577 -44.3167 -15.5942 -20.7827 -8.9598 5.3048 42.1428 12.3397 -3.0850 -0.8755 -0.0000 0.0000 -0.0000 34.1404 5.0318 3.4272 39.9910 7.6808 -17.7171 10.3528 0.6683 19.9014 -10.9381 2.1160 -0.6898 0.0000 0.0000 0.0000 4.2326 2.8708 -0.0869 2.8156 11.5777 4.6826 -0.4374 0.0491 -4.0260 0.0000 0.0000 -0.0000
-1.2762 40.1622 -4.0490 -1.8099 -5.5112 1.0987 0.0000 0.0000 0.0000 -0.2695 -1.9909 -1.9581 -1.5701 -6.1906 2.2393 1.0609 -0.0925 -0.8183 0.0000 -0.0000 -0.0000 0.0000 0.0000 0.0000 2.5458 0.0280 -1.9422 1.9054 -0.5540 2.1446 -0.0000 0.0000 -0.0000 2.8004 -4.7417 -10.8700 -0.0000 0.0000 -0.0000 -34.9366 -2.8917 2.6207 -44.3133 -15.4621 -20.7390 -8.9917 5.3082 41.9911 12.3828 -2.8435 -0.8547 -0.0000 0.0000 -0.0000 34.1174 5.0273 3.4234 39.9794 7.7462 -17.7243 10.3372 0.4947 20.3466 -11.0427 2.3762 -0.7193 0.0000 0.0000 0.0000 4.2394 2.8686 -0.0895 2.8229 11.5740 4.6849 -0.4528 0.0501 -4.0262 0.0000 0.0000 -0.0000
-1.2779 40.1622 -4.0453 -1.8131 -5.5019 1.1106 0.0000 0.0000 0.0000 -0.2630 -1.9884 -1.9556 -1.5677 -6.2043 2.2250 1.0582 -0.0923 -0.8220 0.0000 -0.0000 -0.0000 0.0000 0.0000 0.0000 2.4532 -0.0363 -1.8398 2.0342 -0.6363 2.0525 -0.0000 0.0000 -0.0000 2.9593 -4.7605 -11.0296 -0.0000 0.0000 -0.0000 -34.9861 -2.8132 2.5918 -44.2197 -15.4372 -20.7114 -9.0346 5.3109 41.8637 12.4769 -2.6295 -0.8400 -0.0000 0.0000 -0.0000 34.0465 5.0180 3.4136 39.9729 7.8675 -17.7385 10.3143 0.2502 20.8803 -11.0807 2.7102 -0.7513 0.0000 0.0000 0.0000 4.2377 2.8620 -0.0933 2.8353 11.5787 4.6871 -0.4698 0.0512 -4.0274 0.0000 0.0000 -0.0000
